# xmcd
#
# Track frame offsets:
#	150
#	18685
#	40481
#	58848
#	77741
#	95317
#	113699
#	127813
#	147927
#	162314
#	175569
#	189705
#	211181
#	230072
#	247691
#	270715
#
# Disc length: 3788
#
# Revision: 1
# Processed by: cddbd v1.5.1PL0 Copyright (c) Steve Scherf et al.
# Submitted via: CDex 1.50beta9
# Normalized: r0:TRMNUM
#
DISCID=d60eca10
DTITLE=Lester Young - Lester Young/Exercise in Swing
DYEAR=1900
DGENRE=Jazz
TTITLE0=I've Found a New Baby
TTITLE1=The Man I Love
TTITLE2=Peg O'My Heart
TTITLE3=Mean to Me
TTITLE4=Back to the Land
TTITLE5=I Cover the Waterfront
TTITLE6=It's Only a Paper Moon
TTITLE7=Lester Leaps Again
TTITLE8=Afternoon on a Basie-ite
TTITLE9=Three Little Words
TTITLE10=Sometimes I'm Happy
TTITLE11=After Theatre Jump
TTITLE12=Six Cats and a Prince
TTITLE13=Destination K.C.
TTITLE14=Body and Soul
TTITLE15=Exercise in Swing
EXTD=
EXTT0=
EXTT1=
EXTT2=
EXTT3=
EXTT4=
EXTT5=
EXTT6=
EXTT7=
EXTT8=
EXTT9=
EXTT10=
EXTT11=
EXTT12=
EXTT13=
EXTT14=
EXTT15=
PLAYORDER=
